<svg xmlns="http://www.w3.org/2000/svg" width="548.68" height="111.1" viewBox="0 0 548.68 111.1">
  <g id="CH" transform="translate(-2737.5 -1296.805)">
    <g id="Creative" transform="translate(-1)">
      <path id="Path_109" data-name="Path 109" d="M2743.79,1397.33q-5.3-5.745-5.29-16.2v-47.95q0-10.455,5.29-16.2t15.37-5.74q10.065,0,15.37,5.74t5.29,16.2v9.44h-13.26v-10.33q0-8.3-7.01-8.29t-7.01,8.29v49.86q0,8.16,7.01,8.16t7.01-8.16v-13.64h13.26v12.62q0,10.455-5.29,16.2t-15.37,5.74Q2749.08,1403.07,2743.79,1397.33Z" fill="#3466ff"/>
      <path id="Path_110" data-name="Path 110" d="M2788.23,1312.53h20.79q10.845,0,15.81,5.04,4.98,5.04,4.97,15.49v5.48q0,13.905-9.18,17.6v.26a10.965,10.965,0,0,1,7.21,6.25q2.1,4.725,2.1,12.62v15.69a60.306,60.306,0,0,0,.25,6.18,15.24,15.24,0,0,0,1.28,4.65h-14.28a20.459,20.459,0,0,1-1.02-4.08,61.818,61.818,0,0,1-.25-6.89V1374.5q0-6.12-1.98-8.54t-6.82-2.42h-4.85v38.26h-14.03Zm19.13,38.25q4.215,0,6.31-2.17c1.4-1.44,2.1-3.87,2.1-7.27v-6.89q0-4.845-1.72-7.01t-5.42-2.17h-6.38v25.5h5.11Z" fill="#3466ff"/>
      <path id="Path_111" data-name="Path 111" d="M2839.63,1312.53h38.26v12.75h-24.23v23.59h19.26v12.75h-19.26v27.42h24.23v12.75h-38.26Z" fill="#3466ff"/>
      <path id="Path_112" data-name="Path 112" d="M2896.76,1312.53h19l14.54,89.27h-48.08Zm18.07,76.93-9.02-61.37h-.26l-7.87,61.37Z" fill="#3466ff"/>
      <path id="Path_113" data-name="Path 113" d="M2942.15,1325.28h-14.67v-12.75h43.36v12.75h-14.67v76.51h-14.03v-76.51Z" fill="#3466ff"/>
      <path id="Path_114" data-name="Path 114" d="M2977.6,1312.53h14.03v89.27H2977.6Z" fill="#3466ff"/>
      <path id="Path_115" data-name="Path 115" d="M2998.39,1312.53h14.16l9.18,69.24h.26l9.18-69.24h12.88l-13.52,89.27h-18.62Z" fill="#3466ff"/>
      <path id="Path_116" data-name="Path 116" d="M3050.8,1312.53h38.26v12.75h-24.23v23.59h19.26v12.75h-19.26v27.42h24.23v12.75H3050.8Z" fill="#3466ff"/>
    </g>
    <g id="Hire" transform="translate(19)">
      <path id="Path_117" data-name="Path 117" d="M3099.49,1312.53h14.03v36.34h15.05v-36.34h14.03v89.27h-14.03v-40.17h-15.05v40.17h-14.03Z" fill="#3466ff"/>
      <path id="Path_118" data-name="Path 118" d="M3177.53,1312.53h20.79q10.83,0,15.81,5.04,4.965,5.04,4.97,15.49v5.48q0,13.905-9.18,17.6v.26a10.925,10.925,0,0,1,7.2,6.25q2.1,4.725,2.1,12.62v15.69a60.306,60.306,0,0,0,.25,6.18,15.5,15.5,0,0,0,1.27,4.65h-14.28a20.444,20.444,0,0,1-1.02-4.08,61.817,61.817,0,0,1-.25-6.89V1374.5q0-6.12-1.98-8.54t-6.82-2.42h-4.85v38.26h-14.03v-89.27Zm19.13,38.25q4.215,0,6.31-2.17c1.4-1.44,2.1-3.87,2.1-7.27v-6.89q0-4.845-1.72-7.01t-5.42-2.17h-6.38v25.5h5.11Z" fill="#3466ff"/>
      <path id="Path_119" data-name="Path 119" d="M3228.92,1312.53h38.26v12.75h-24.23v23.59h19.26v12.75h-19.26v27.42h24.23v12.75h-38.26Z" fill="#3466ff"/>
      <g id="Group_46" data-name="Group 46">
        <g id="Group_45" data-name="Group 45">
          <path id="Path_120" data-name="Path 120" d="M3153.05,1309.05v76.22c1.74,0,1.74-2.05,3.48-2.05s1.74,2.05,3.48,2.05,1.8-2.05,3.54-2.05,1.64,2.05,3.54,2.05v-76.22Z" fill="none" stroke="#3466ff" stroke-width="5"/>
          <path id="Path_121" data-name="Path 121" d="M3160.06,1401.53l2.98-7.05a14.521,14.521,0,0,0-3.04-.32,15.37,15.37,0,0,0-2.98.3Z" fill="none" stroke="#3466ff" stroke-width="5"/>
          <path id="Path_122" data-name="Path 122" d="M3163.98,1299.32h-7.45c-1.78,0-3.48,1.11-3.48,2.81v5.11h14.03v-5.11a2.84,2.84,0,0,0-3.1-2.81Z" fill="none" stroke="#3466ff" stroke-width="5"/>
        </g>
      </g>
    </g>
  </g>
</svg>
