<svg xmlns="http://www.w3.org/2000/svg" width="303.836" height="275.366" viewBox="0 0 303.836 275.366">
  <g id="Group_34" data-name="Group 34" transform="translate(-848.13 -986.84)">
    <g id="icon" transform="translate(-25)">
      <g id="Group_31" data-name="Group 31">
        <path id="Path_89" data-name="Path 89" d="M1061.8,1133.55h-34.84l-19.35,25.8a7.546,7.546,0,0,1-6.51,2.98,7.464,7.464,0,0,1-6.04-3.85l-69.84-126c-2.21-3.98-.52-9.46,5-11.14h147.17c5.6,1.76,7.19,7.35,4.85,11.32l-23.54,39.8h40.73l21.74-39.73a28.412,28.412,0,0,0-24.92-42.05h-65.46l-157.66-3.84,78.83,148.2,35.89,65.73a21.614,21.614,0,0,0,38.02-.15Z"/>
      </g>
      <g id="Group_32" data-name="Group 32">
        <path id="Path_90" data-name="Path 90" d="M1161.27,990.69l-50.84,92.88a7.515,7.515,0,0,1-6.58,3.9h-58.1a7.716,7.716,0,0,1-5.71-2.39,7.5,7.5,0,0,1-.96-8.93l9.42-15.93a15.822,15.822,0,0,0-13.62-23.88H971.36a15.823,15.823,0,0,0-13.84,23.49l33.2,59.89a15.815,15.815,0,0,0,26.49,1.82h0a7.5,7.5,0,0,1,6-3h50.9a7.769,7.769,0,0,1,5.6,2.27,7.512,7.512,0,0,1,1.23,8.77l-65.38,121.97,2.69,4.25a13.775,13.775,0,0,0,23.73-.77l67.62-123.83,65.68-120.28a13.765,13.765,0,0,0-14.01-20.23Z"/>
      </g>
    </g>
  </g>
</svg>
